# xmcd CD database file
#
# Track frame offsets:
#	150
#	19592
#	35435
#	47575
#	64722
#	86810
#	101105
#	117137
#	128785
#	142447
#	158865
#
# Disc length: 2306 seconds
#
# Revision: 0
# Processed by: cddbd v1.5PL3 Copyright (c) Steve Scherf et al.
# Submitted via: CDex 1.51
#
DISCID=9709000b
DTITLE=Dennis Marsh - "faith"
DYEAR=1998
DGENRE=Country
TTITLE0=You Gave Me A Mountain
TTITLE1=His Hand In Mine
TTITLE2=Lead Me, Guide Me
TTITLE3=I'll Never Be Lonely Again
TTITLE4=Gone
TTITLE5=It Takes Faith
TTITLE6=Show Me
TTITLE7=You Must Make Up Your Mind
TTITLE8=He Touched Me
TTITLE9=She's Made Of Faith
TTITLE10=Old Rugged Cross
EXTD=YEAR: 1998
EXTT0=
EXTT1=
EXTT2=
EXTT3=
EXTT4=
EXTT5=
EXTT6=
EXTT7=
EXTT8=
EXTT9=
EXTT10=
PLAYORDER=
